HIERARCHY
ROOT Hips
{
  OFFSET 5.84602e-005 68.8428 3.50346
  CHANNELS 6 Xposition Yposition Zposition Zrotation Xrotation Yrotation
  JOINT Spine
  {
    OFFSET 0 8.597 -4.6522
    CHANNELS 3 Zrotation Xrotation Yrotation
    JOINT Spine1
    {
      OFFSET 0 7.8454 0.4098
      CHANNELS 3 Zrotation Xrotation Yrotation
      JOINT Spine2
      {
        OFFSET 0 9.7078 -2.1609
        CHANNELS 3 Zrotation Xrotation Yrotation
        JOINT Neck
        {
          OFFSET 0 21.8761 -0.4549
          CHANNELS 3 Zrotation Xrotation Yrotation
          JOINT Head
          {
            OFFSET 0 12.3537 3.3602
            CHANNELS 3 Zrotation Xrotation Yrotation
            End Site
            {
              OFFSET 0.0001 18.9506 0.5657
            }
          }
        }
        JOINT LeftShoulder
        {
          OFFSET 2.2086 21.1115 7.2329
          CHANNELS 3 Zrotation Xrotation Yrotation
          JOINT LeftArm
          {
            OFFSET 13.1193 3.0282 -4.8998
            CHANNELS 3 Zrotation Xrotation Yrotation
            JOINT LeftForeArm
            {
              OFFSET 27.4081 -0.0973053 -0.2375
              CHANNELS 3 Zrotation Xrotation Yrotation
              JOINT LeftHand
              {
                OFFSET 22.8641 0.0662994 -0.1369
                CHANNELS 3 Zrotation Xrotation Yrotation
                JOINT LeftHandIndex1
                {
                  OFFSET 8.8614 0.775009 2.4612
                  CHANNELS 3 Zrotation Xrotation Yrotation
                  JOINT LeftHandIndex2
                  {
                    OFFSET 3.3146 -0.808304 0.5841
                    CHANNELS 3 Zrotation Xrotation Yrotation
                    JOINT LeftHandIndex3
                    {
                      OFFSET 2.2628 -0.552002 0.3989
                      CHANNELS 3 Zrotation Xrotation Yrotation
                      End Site
                      {
                        OFFSET 1.6102 -0.4807 0.2612
                      }
                    }
                  }
                }
                JOINT LeftHandMiddle1
                {
                  OFFSET 8.9937 0.895004 0.2143
                  CHANNELS 3 Zrotation Xrotation Yrotation
                  JOINT LeftHandMiddle2
                  {
                    OFFSET 4.0984 0.0113983 -0.0242
                    CHANNELS 3 Zrotation Xrotation Yrotation
                    JOINT LeftHandMiddle3
                    {
                      OFFSET 2.2716 0.00689697 -0.0138001
                      CHANNELS 3 Zrotation Xrotation Yrotation
                      End Site
                      {
                        OFFSET 2.0404 -0.1441 0.0027
                      }
                    }
                  }
                }
                JOINT LeftHandRing1
                {
                  OFFSET 8.5234 0.597198 -2.0164
                  CHANNELS 3 Zrotation Xrotation Yrotation
                  JOINT LeftHandRing2
                  {
                    OFFSET 3.7188 -0.188293 -0.2328
                    CHANNELS 3 Zrotation Xrotation Yrotation
                    JOINT LeftHandRing3
                    {
                      OFFSET 2.1191 -0.106598 -0.1332
                      CHANNELS 3 Zrotation Xrotation Yrotation
                      End Site
                      {
                        OFFSET 1.8737 -0.2304 -0.0886
                      }
                    }
                  }
                }
                JOINT LeftHandPinky1
                {
                  OFFSET 7.9094 -0.601089 -3.4825
                  CHANNELS 3 Zrotation Xrotation Yrotation
                  JOINT LeftHandPinky2
                  {
                    OFFSET 2.2874 -0.477005 -0.6314
                    CHANNELS 3 Zrotation Xrotation Yrotation
                    JOINT LeftHandPinky3
                    {
                      OFFSET 1.6774 -0.349396 -0.4633
                      CHANNELS 3 Zrotation Xrotation Yrotation
                      End Site
                      {
                        OFFSET 1.4888 -0.4091 -0.3416
                      }
                    }
                  }
                }
                JOINT LeftHandThumb1
                {
                  OFFSET 1.833 -1.3875 1.3896
                  CHANNELS 3 Zrotation Xrotation Yrotation
                  JOINT LeftHandThumb2
                  {
                    OFFSET 3.4129 -1.121 2.5732
                    CHANNELS 3 Zrotation Xrotation Yrotation
                    JOINT LeftHandThumb3
                    {
                      OFFSET 2.2474 -0.804199 1.6192
                      CHANNELS 3 Zrotation Xrotation Yrotation
                      End Site
                      {
                        OFFSET 1.6527 -0.5689 1.1317
                      }
                    }
                  }
                }
              }
            }
          }
        }
        JOINT RightShoulder
        {
          OFFSET -2.2086 21.1115 7.2329
          CHANNELS 3 Zrotation Xrotation Yrotation
          JOINT RightArm
          {
            OFFSET -13.1216 3.0287 -4.9007
            CHANNELS 3 Zrotation Xrotation Yrotation
            JOINT RightForeArm
            {
              OFFSET -27.4081 -0.0973053 -0.2375
              CHANNELS 3 Zrotation Xrotation Yrotation
              JOINT RightHand
              {
                OFFSET -22.8641 0.0664063 -0.1369
                CHANNELS 3 Zrotation Xrotation Yrotation
                JOINT RightHandIndex1
                {
                  OFFSET -8.8614 0.774994 2.4612
                  CHANNELS 3 Zrotation Xrotation Yrotation
                  JOINT RightHandIndex2
                  {
                    OFFSET -3.3146 -0.808304 0.5841
                    CHANNELS 3 Zrotation Xrotation Yrotation
                    JOINT RightHandIndex3
                    {
                      OFFSET -2.2628 -0.552002 0.3989
                      CHANNELS 3 Zrotation Xrotation Yrotation
                      End Site
                      {
                        OFFSET -1.6102 -0.4807 0.2612
                      }
                    }
                  }
                }
                JOINT RightHandMiddle1
                {
                  OFFSET -8.9937 0.894989 0.2143
                  CHANNELS 3 Zrotation Xrotation Yrotation
                  JOINT RightHandMiddle2
                  {
                    OFFSET -4.0984 0.0113983 -0.0242
                    CHANNELS 3 Zrotation Xrotation Yrotation
                    JOINT RightHandMiddle3
                    {
                      OFFSET -2.2716 0.00691223 -0.0138001
                      CHANNELS 3 Zrotation Xrotation Yrotation
                      End Site
                      {
                        OFFSET -2.0404 -0.1441 0.0027
                      }
                    }
                  }
                }
                JOINT RightHandRing1
                {
                  OFFSET -8.5234 0.597198 -2.0164
                  CHANNELS 3 Zrotation Xrotation Yrotation
                  JOINT RightHandRing2
                  {
                    OFFSET -3.7188 -0.188309 -0.2328
                    CHANNELS 3 Zrotation Xrotation Yrotation
                    JOINT RightHandRing3
                    {
                      OFFSET -2.1191 -0.106598 -0.1332
                      CHANNELS 3 Zrotation Xrotation Yrotation
                      End Site
                      {
                        OFFSET -1.8737 -0.2304 -0.0886
                      }
                    }
                  }
                }
                JOINT RightHandPinky1
                {
                  OFFSET -7.9094 -0.601105 -3.4825
                  CHANNELS 3 Zrotation Xrotation Yrotation
                  JOINT RightHandPinky2
                  {
                    OFFSET -2.2874 -0.477005 -0.6314
                    CHANNELS 3 Zrotation Xrotation Yrotation
                    JOINT RightHandPinky3
                    {
                      OFFSET -1.6774 -0.349396 -0.4633
                      CHANNELS 3 Zrotation Xrotation Yrotation
                      End Site
                      {
                        OFFSET -1.4888 -0.4091 -0.3416
                      }
                    }
                  }
                }
                JOINT RightHandThumb1
                {
                  OFFSET -1.833 -1.38751 1.3896
                  CHANNELS 3 Zrotation Xrotation Yrotation
                  JOINT RightHandThumb2
                  {
                    OFFSET -3.41299 -1.12099 2.5732
                    CHANNELS 3 Zrotation Xrotation Yrotation
                    JOINT RightHandThumb3
                    {
                      OFFSET -2.24741 -0.804108 1.6192
                      CHANNELS 3 Zrotation Xrotation Yrotation
                      End Site
                      {
                        OFFSET -1.6527 -0.5689 1.1317
                      }
                    }
                  }
                }
              }
            }
          }
        }
      }
    }
  }
  JOINT RightUpLeg
  {
    OFFSET -9.1966 3.8861 -0.7581
    CHANNELS 3 Zrotation Xrotation Yrotation
    JOINT RightLeg
    {
      OFFSET -0.7359 -41.0265 0
      CHANNELS 3 Zrotation Xrotation Yrotation
      JOINT RightFoot
      {
        OFFSET 0 -40.2855 0
        CHANNELS 3 Zrotation Xrotation Yrotation
        JOINT RightToeBase
        {
          OFFSET 0 -5.6122 11.7359
          CHANNELS 3 Zrotation Xrotation Yrotation
          End Site
          {
            OFFSET 0 0 7.8731
          }
        }
      }
    }
  }
  JOINT LeftUpLeg
  {
    OFFSET 9.1965 3.8864 -0.7581
    CHANNELS 3 Zrotation Xrotation Yrotation
    JOINT LeftLeg
    {
      OFFSET 0.7359 -41.0268 0
      CHANNELS 3 Zrotation Xrotation Yrotation
      JOINT LeftFoot
      {
        OFFSET 0 -40.2855 0
        CHANNELS 3 Zrotation Xrotation Yrotation
        JOINT LeftToeBase
        {
          OFFSET 0 -5.6122 11.7359
          CHANNELS 3 Zrotation Xrotation Yrotation
          End Site
          {
            OFFSET 0 0 7.8731
          }
        }
      }
    }
  }
}
MOTION
Frames:	4
Frame Time:	0.0333333
5.84602e-005 68.8428 3.50346 0 0 -0 0 0 -0 0 0 -0 0 0 -0 0 0 -0 0 0 -0 0 0 -0 0 0 -0 0 0 -0 0 0 -0 0 0 -0 0 0 -0 0 0 -0 0 0 -0 -0.0146107 -8.87603e-005 -2.63497e-007 2.99804e-018 -2.42657e-020 -1.42182e-022 0 0 -0 -0.0187562 -0.001176 5.858e-005 5.06224e-018 3.88251e-019 1.21329e-020 0 0 -0 -0.012269 -0.00324817 0.000675346 -1.74678e-018 3.88251e-019 -0 0 0 -0 0 0 -0 0 0 -0 0 0 -0 0 0 -0 0 0 -0 0 0 -0 0 0 -0 0 0 -0 0 0 -0 0 0 -0 0.0149955 -9.10982e-005 2.64101e-007 -9.69331e-018 1.21329e-020 -4.7394e-023 0 0 -0 0.0189956 -0.00119102 -5.96516e-005 -5.41541e-019 0 2.42657e-020 0 0 -0 0.0122698 -0.00324857 -0.000673756 -2.00796e-019 0 -1.94126e-019 0 0 -0 0 0 -0 0 0 -0 3.39842 1.33031 -0.0637918 -5.65207e-008 0.834868 -0.000436188 -3.39935 -2.16518 -0.0642563 -8.89002e-024 -1.18485e-023 -1.48106e-024 -3.39844 1.35642 0.0640283 -3.18788e-007 0.782166 -0.000588827 3.39931 -2.13858 0.0634662 1.1399e-023 0 -0 
-1.31666 16.7771 3.95118 0.613208 25.9733 179.247 0.516523 8.26558 -0.787487 1.16773 16.5228 -1.67779 1.16773 16.5228 -1.67779 4.35941 17.3059 -0.966388 8.01364 -0.227915 0.224546 11.0025 6.99052 -5.30827e-005 -30.8089 7.97651 -78.4606 -34.4578 -42.9545 -49.6374 -7.06746 -15.1981 -18.6794 -6.36111e-015 0 -0 2.75869e-033 -3.97569e-016 3.97569e-016 0 1.59028e-015 -0 -6.36111e-015 0 -0 -0.0146237 -8.25625e-005 -1.10506e-006 6.0722e-007 -6.88022e-007 -5.80337e-009 -6.36111e-015 0 -0 -0.0187469 -0.00117517 5.53463e-005 6.06833e-007 -6.88125e-007 -5.8286e-009 -6.36111e-015 0 -0 -0.0122527 -0.00324724 0.0006741 3.18055e-015 -1.98785e-015 3.97569e-016 -6.36111e-015 0 -0 2.75869e-033 -3.97569e-016 3.97569e-016 0 1.59028e-015 -0 -11.0058 6.99086 -0.00323369 35.5938 6.84572 80.1201 25.6263 -47.9889 37.2828 24.9987 -0.00107073 17.9967 0 3.97569e-016 -0 3.18055e-015 1.98785e-016 -3.97569e-016 9.54166e-015 -1.98785e-016 -3.97569e-016 0 3.97569e-016 -0 0.0149832 -9.30878e-005 -1.06645e-006 1.27222e-014 1.19271e-015 -1.19271e-015 0 3.97569e-016 -0 0.0190164 -0.00118882 -5.7495e-005 6.36111e-015 1.59028e-015 -3.97569e-016 0 3.97569e-016 -0 0.0122439 -0.00323801 -0.000677358 1.10348e-032 7.95139e-016 -7.95139e-016 0 3.97569e-016 -0 3.18055e-015 1.98785e-016 -3.97569e-016 9.54166e-015 -1.98785e-016 -3.97569e-016 -76.5663 -59.1113 -52.0163 97.3384 69.4765 -99.8196 -0.0165099 -9.51777 -5.04226 9.83821e-008 3.51599e-008 -2.17247e-008 37.2056 -55.3642 13.7299 -52.8882 36.1634 56.9578 -1.77536 8.72836 3.58475 6.16118e-007 1.25921e-006 1.96546e-006 
-1.31666 16.7771 3.95118 0.613208 25.9733 179.247 0.516523 8.26558 -0.787487 1.16773 16.5228 -1.67779 1.16773 16.5228 -1.67779 4.33033 17.0572 -0.858245 8.01364 -0.227918 0.224547 11.0025 6.99052 -5.30827e-005 -30.5125 7.98833 -78.2723 -34.4578 -42.9545 -49.6374 -7.06746 -15.1981 -18.6794 -3.18055e-015 -1.59028e-015 1.19271e-015 -3.18055e-015 -1.19271e-015 7.95139e-016 -3.18055e-015 -7.95139e-016 7.95139e-016 -3.18055e-015 -1.59028e-015 1.19271e-015 -0.0146221 -9.35438e-005 -1.07485e-006 3.18055e-015 -3.97569e-016 3.97569e-016 -3.18055e-015 -1.59028e-015 1.19271e-015 -0.0187647 -0.00118077 5.98641e-005 -3.18055e-015 3.97569e-016 1.98785e-015 -3.18055e-015 -1.59028e-015 1.19271e-015 -0.0122945 -0.00325043 0.000674885 -1.27222e-014 -1.19271e-015 -0 -3.18055e-015 -1.59028e-015 1.19271e-015 -3.18055e-015 -1.19271e-015 7.95139e-016 -3.18055e-015 -7.95139e-016 7.95139e-016 -11.0059 6.99086 -0.00323361 35.7979 6.77171 80.2499 25.445 -47.8617 37.1166 24.9987 -0.00108395 17.9967 3.18055e-015 1.19271e-014 3.97569e-016 1.59505e-007 3.69103e-007 5.0323e-009 9.54166e-015 -2.18663e-015 -3.97569e-016 3.18055e-015 1.19271e-014 3.97569e-016 0.0150217 -9.33965e-005 -7.22418e-007 -6.36111e-015 -1.98785e-016 3.97569e-016 3.18055e-015 1.19271e-014 3.97569e-016 0.0190123 -0.00119088 -6.03011e-005 3.18055e-015 5.96354e-016 1.19271e-015 3.18055e-015 1.19271e-014 3.97569e-016 0.0122248 -0.00323943 -0.000677456 6.36111e-015 0 3.97569e-016 3.18055e-015 1.19271e-014 3.97569e-016 1.59505e-007 3.69103e-007 5.0323e-009 9.54166e-015 -2.18663e-015 -3.97569e-016 -76.5663 -59.1113 -52.0163 97.3384 69.4765 -99.8196 -0.0165099 -9.51777 -5.04226 9.83821e-008 3.51599e-008 -2.17247e-008 37.2056 -55.3642 13.7299 -52.8882 36.1634 56.9578 -1.77536 8.72836 3.58475 6.16118e-007 1.25921e-006 1.96546e-006 
-1.31666 16.7771 3.95118 0.613208 25.9733 179.247 0.516523 8.26558 -0.787487 1.16773 16.5228 -1.67779 1.16773 16.5228 -1.67779 4.30177 16.8082 -0.750294 8.01364 -0.227919 0.224547 11.0025 6.99052 -5.30827e-005 -30.2158 8.00107 -78.084 -34.4578 -42.9544 -49.6374 -7.06748 -15.1981 -18.6794 3.18055e-015 1.59028e-015 -3.97569e-016 6.36111e-015 1.59028e-015 -3.97569e-016 3.18055e-015 3.97569e-015 -0 3.18055e-015 1.59028e-015 -3.97569e-016 -0.0146094 -9.55625e-005 4.267e-006 0 1.59028e-015 -0 3.18055e-015 1.59028e-015 -3.97569e-016 -0.0187647 -0.00118446 5.87828e-005 -6.17488e-007 6.36268e-007 -4.03473e-008 3.18055e-015 1.59028e-015 -3.97569e-016 -0.0123323 -0.00326413 0.000675787 2.75869e-033 3.97569e-016 -3.97569e-016 3.18055e-015 1.59028e-015 -3.97569e-016 6.36111e-015 1.59028e-015 -3.97569e-016 3.18055e-015 3.97569e-015 -0 -11.0058 6.99086 -0.00323369 36.0022 6.69804 80.3801 25.2648 -47.734 36.9515 24.9987 -0.00106293 17.9967 1.27222e-014 3.97569e-016 -0 9.54166e-015 0 -1.19271e-015 6.36111e-015 0 -3.97569e-016 1.27222e-014 3.97569e-016 -0 0.0149542 -9.60553e-005 -3.26371e-006 -6.36111e-015 1.19271e-015 3.97569e-016 1.27222e-014 3.97569e-016 -0 0.0189889 -0.00119413 -6.02983e-005 3.18055e-015 3.97569e-016 -7.95139e-016 1.27222e-014 3.97569e-016 -0 0.0122683 -0.00325276 -0.000677692 3.18055e-015 9.93923e-016 -0 1.27222e-014 3.97569e-016 -0 9.54166e-015 0 -1.19271e-015 6.36111e-015 0 -3.97569e-016 -76.5663 -59.1113 -52.0163 97.3384 69.4765 -99.8196 -0.0165021 -9.51777 -5.04226 9.90339e-007 1.54019e-007 3.08305e-006 37.2056 -55.3642 13.7299 -52.8882 36.1634 56.9578 -1.77536 8.72836 3.58475 -9.96218e-007 1.53906e-006 2.30173e-006 
